<svg id="Layer_1" data-name="Layer 1" xmlns="http://www.w3.org/2000/svg" xmlns:xlink="http://www.w3.org/1999/xlink" viewBox="0 0 969.77 158.93"><defs><style>.cls-1{fill:url(#linear-gradient);}.cls-2{fill:url(#linear-gradient-2);}.cls-3{fill:url(#linear-gradient-3);}</style><linearGradient id="linear-gradient" x1="132.24" y1="35.96" x2="30.69" y2="148.74" gradientUnits="userSpaceOnUse"><stop offset="0" stop-color="#02bf58"/><stop offset="1" stop-color="#019fde"/></linearGradient><linearGradient id="linear-gradient-2" x1="595.6" y1="24.81" x2="573.31" y2="49.57" gradientTransform="translate(116.74 -315.25) rotate(33.36)" xlink:href="#linear-gradient"/><linearGradient id="linear-gradient-3" x1="823.69" y1="120.9" x2="801.4" y2="145.66" xlink:href="#linear-gradient"/></defs><title>Suprise_Logo</title><path class="cls-1" d="M56.72,93a23.46,23.46,0,0,0,3.88.6,27.31,27.31,0,0,0,3.35.07,24,24,0,0,0,5.67-.88,19,19,0,0,0,13.22-13,23.54,23.54,0,0,0,.94-5.61,24.76,24.76,0,0,0,0-3.32A22.67,22.67,0,0,0,83.18,67a32.68,32.68,0,1,1,39.31,24.3,33,33,0,0,1-15,0,23.83,23.83,0,0,0-3.85-.56,28.61,28.61,0,0,0-3.32,0,23.53,23.53,0,0,0-5.61,1,19,19,0,0,0-13,13.21,23.55,23.55,0,0,0-.89,5.67,29.41,29.41,0,0,0,.07,3.35,24.57,24.57,0,0,0,.6,3.88A33.66,33.66,0,1,1,40.84,93,34.08,34.08,0,0,1,56.72,93Z" transform="translate(-15.12 -20.53)"/><path d="M482.22,82.87a39.25,39.25,0,0,0-15.32-15.4A43.54,43.54,0,0,0,445.23,62Q427.61,62,418.4,73.1V63.26H394.75V179.47h24.76V139.62q9.38,10.32,25.72,10.32a43.54,43.54,0,0,0,21.67-5.48,39.25,39.25,0,0,0,15.32-15.4q5.55-9.91,5.56-23.1T482.22,82.87ZM445.6,128.15a22.26,22.26,0,1,1,22.26-22.26A22.25,22.25,0,0,1,445.6,128.15Z" transform="translate(-15.12 -20.53)"/><circle class="cls-2" cx="584.46" cy="37.19" r="16.66" transform="translate(60.73 306.97) rotate(-33.36)"/><path class="cls-3" d="M829.2,133.28a16.66,16.66,0,1,1-16.65-16.66A16.66,16.66,0,0,1,829.2,133.28Z" transform="translate(-15.12 -20.53)"/><path d="M250.13,89a181.14,181.14,0,0,0-20.8-6q-12.22-2.7-18.18-5.48t-6-8.5q0-5.72,5.16-9.2t16-3.5q15.39,0,30.79,8.74l7.94-19.53a61.24,61.24,0,0,0-17.78-7.3,85.11,85.11,0,0,0-20.8-2.54q-15.24,0-25.79,4.6T184.88,52.7a31,31,0,0,0-5.24,17.54q0,11.12,5.8,17.78a33.71,33.71,0,0,0,13.89,9.69,180.9,180.9,0,0,0,20.79,6q8.26,1.91,13.1,3.49a23.66,23.66,0,0,1,7.94,4.21,8.29,8.29,0,0,1,3.09,6.59q0,5.4-5.23,8.65t-16.2,3.26a63.68,63.68,0,0,1-19.68-3.18,59,59,0,0,1-17-8.41l-8.73,19.36q7.46,5.72,19.76,9.29a91,91,0,0,0,25.48,3.57q15.24,0,25.88-4.6t16-12.46a30.4,30.4,0,0,0,5.31-17.39q0-11.1-5.79-17.62A34.44,34.44,0,0,0,250.13,89Z" transform="translate(-15.12 -20.53)"/><path d="M347,105.49q0,11.43-5.39,17.22t-14.29,5.8q-17.31,0-17.3-20.64V63.26H285.21v48.26q0,19,9.84,28.73t26.67,9.69A37,37,0,0,0,336.49,147a33,33,0,0,0,11.75-8.49v10.16h23.49V63.26H347Z" transform="translate(-15.12 -20.53)"/><path d="M527.94,74.53V63.26H504.29v85.41h24.76V108.35q0-11.91,6-17.86t16.67-6c1,0,2.81.11,5.56.32V62a44.57,44.57,0,0,0-17.38,3.17A27.53,27.53,0,0,0,527.94,74.53Z" transform="translate(-15.12 -20.53)"/><rect x="556.96" y="42.73" width="24.77" height="85.41"/><path d="M672.4,101a147.85,147.85,0,0,0-17.14-3.73,75.31,75.31,0,0,1-13.65-3q-4.29-1.59-4.29-5.56,0-3.5,4-5.71t11.9-2.23a49.32,49.32,0,0,1,24.61,6.35l8.26-17.62A50.6,50.6,0,0,0,671.21,64a83.32,83.32,0,0,0-18-2A58.47,58.47,0,0,0,632,65.48q-9,3.49-13.65,9.77a23.38,23.38,0,0,0-4.68,14.36q0,9.69,5,14.92a26.79,26.79,0,0,0,11.82,7.31,128.21,128.21,0,0,0,17.31,3.65,63.22,63.22,0,0,1,13.17,2.7c2.86,1.06,4.29,2.8,4.29,5.24q0,7.77-15.72,7.78a57.71,57.71,0,0,1-15.87-2.31,51.58,51.58,0,0,1-13.81-6l-8.26,17.78q6,4,16.19,6.59a82.87,82.87,0,0,0,20.8,2.62q12.54,0,21.67-3.41t13.89-9.61a22.51,22.51,0,0,0,4.76-14.13q0-9.36-4.92-14.6A25.74,25.74,0,0,0,672.4,101Z" transform="translate(-15.12 -20.53)"/><path d="M766.07,67.39a50.6,50.6,0,0,0-46,.24,41.53,41.53,0,0,0-16.35,15.71,43.63,43.63,0,0,0-6,22.62,43.13,43.13,0,0,0,6,22.71A41.35,41.35,0,0,0,721,144.3q11.12,5.64,25.56,5.64,23.18,0,35.24-13.81l-13.17-14.29a28.64,28.64,0,0,1-9.61,6.27,32.85,32.85,0,0,1-11.83,2q-9.67,0-16.19-4.6A20.1,20.1,0,0,1,722.73,113a40.39,40.39,0,0,1-.32-14.45,20.26,20.26,0,0,1,7-13,21.31,21.31,0,0,1,14.13-4.77,20.9,20.9,0,0,1,14,4.84,20.53,20.53,0,0,1,7,12.94H742.56L737.89,113h49.45q.48-6.2.48-6.67,0-13.34-5.8-23.41A39.41,39.41,0,0,0,766.07,67.39Z" transform="translate(-15.12 -20.53)"/><path d="M857.45,121.28a8.92,8.92,0,0,1,8.16,5l8.16-4.39a14.15,14.15,0,0,0-6.24-6.84,20.13,20.13,0,0,0-10-2.4,22.28,22.28,0,0,0-10.42,2.4,17.9,17.9,0,0,0-7.22,6.64,19.21,19.21,0,0,0,0,19.3,17.9,17.9,0,0,0,7.22,6.64,22.28,22.28,0,0,0,10.42,2.4,19.93,19.93,0,0,0,10-2.43,14.45,14.45,0,0,0,6.24-6.75l-8.16-4.45a8.84,8.84,0,0,1-8.16,5,9.24,9.24,0,0,1-6.82-2.7,11.35,11.35,0,0,1,0-14.7A9.24,9.24,0,0,1,857.45,121.28Z" transform="translate(-15.12 -20.53)"/><path d="M980.87,116.66q-4-4-10.83-4a17.81,17.81,0,0,0-7.45,1.55,15,15,0,0,0-5.64,4.39,12.31,12.31,0,0,0-5-4.42,15.62,15.62,0,0,0-7-1.52,16.68,16.68,0,0,0-6.44,1.22,13.36,13.36,0,0,0-5,3.5v-4.18H923.56v36.3h10.52V131.26q0-4.72,2.16-7.12a7.46,7.46,0,0,1,5.81-2.39q6.87,0,6.88,8.57v19.16h10.52V131.26q0-4.72,2.16-7.12a7.52,7.52,0,0,1,5.87-2.39,6.27,6.27,0,0,1,5.09,2.13q1.78,2.12,1.79,6.44v19.16h10.52V128.7Q984.88,120.68,980.87,116.66Z" transform="translate(-15.12 -20.53)"/><path d="M906.9,115a23.19,23.19,0,0,0-20.55,0,17.79,17.79,0,0,0-7.11,6.64,19.4,19.4,0,0,0,0,19.3,17.79,17.79,0,0,0,7.11,6.64,23.19,23.19,0,0,0,20.55,0A17.84,17.84,0,0,0,914,141a19.47,19.47,0,0,0,0-19.3A17.84,17.84,0,0,0,906.9,115Zm-10.29,25.68a9.46,9.46,0,1,1,9.46-9.45A9.46,9.46,0,0,1,896.61,140.72Z" transform="translate(-15.12 -20.53)"/></svg>